<svg id="Layer_1" data-name="Layer 1" xmlns="http://www.w3.org/2000/svg" viewBox="0 0 505.89 219.48"><defs><style>.cls-1,.cls-4{fill:none;}.cls-1,.cls-4,.cls-5{stroke:#1d1d1b;stroke-miterlimit:10;}.cls-1,.cls-5{stroke-width:3px;}.cls-2,.cls-5{fill:#1d1d1b;}.cls-3{fill:#fff;}.cls-4{stroke-width:2px;}</style></defs><polygon class="cls-1" points="4.33 10.16 4.33 208.41 44.68 208.41 43.27 163.85 63.98 203.14 85.91 208.41 114.86 215.42 163.1 215.42 183.28 207.53 195.56 204.9 341.18 201.39 369.25 211.04 412.23 211.04 447.31 205.77 476.26 190.86 488.54 173.32 498.19 146.13 498.19 122.44 498.19 103.14 498.19 76.83 488.54 54.9 474.51 35.6 458.72 19.81 439.42 10.16 409.6 10.16 375.38 10.16 345.56 18.93 324.51 18.93 187.67 17.18 165.74 4.02 115.74 4.02 86.79 4.02 66.61 18.93 42.05 39.11 42.93 11.91 4.33 10.16"/><line class="cls-1" x1="42.05" y1="39.11" x2="43.27" y2="163.85"/><polygon class="cls-2" points="309.31 147.97 367.27 179.49 380.28 172.73 398.19 144.37 401.7 129.18 401.7 104.9 401.7 85.6 395.56 68.06 388.54 55.77 378.02 49.63 370.12 45.25 305.21 73.32 313.11 95.25 314.86 108.41 313.98 124.19 306.05 145.25 309.31 147.97"/><polygon class="cls-2" points="343.81 45.25 299.07 63.67 291.18 54.46 237.67 54.46 227.38 54.46 213.94 48.76 237.67 39.11 278.87 39.11 343.81 45.25"/><polygon class="cls-2" points="456.96 63.67 463.98 75.95 463.98 91.74 445.56 91.74 428.02 83.84 428.02 63.67 439.42 63.67 456.96 63.67"/><polygon class="cls-2" points="428.02 135.6 452.58 129.18 463.98 129.18 463.98 146.13 456.96 157.53 437.67 157.53 428.02 152.26 428.02 135.6"/><polygon class="cls-3" points="496.8 103.14 445.4 103.14 444.97 91.74 406.8 91.74 406.8 104.28 406.8 123.45 406.8 128.57 445.4 129.18 445.4 116.57 496.8 116.67 496.8 103.14"/><rect class="cls-3" x="404.12" y="104.28" width="9.22" height="12.38"/><path class="cls-4" d="M424.34,80.27V66.2a.47.47,0,0,1,.09-.28l4.65-6.85h24.1"/><polyline class="cls-4" points="421.1 77.62 421.1 73.14 421.1 63.39 425.84 56.41 449.94 56.41"/><polyline class="cls-4" points="418.6 75.14 418.6 70.66 418.6 60.91 423.34 53.93 447.44 53.93"/><polyline class="cls-4" points="424.59 139.53 424.59 144.52 424.59 155.37 429.33 163.15 453.43 163.15"/><polyline class="cls-4" points="421.35 142.49 421.35 147.48 421.35 158.33 426.09 166.1 450.19 166.1"/><polyline class="cls-4" points="418.85 145.25 418.85 150.24 418.85 161.09 423.59 168.87 447.69 168.87"/><polygon class="cls-3" points="314.31 104.28 314.31 116.66 195.56 114.89 195.56 102.7 314.31 104.28"/><polygon class="cls-2" points="349.63 180.2 301.12 152.98 290.63 162.34 231.63 163.47 219.15 168.57 213.94 170.28 221.42 173.11 349.63 180.2"/><polygon class="cls-1" points="59.26 52.8 54.45 83.11 59.26 85.51 59.26 104.76 153.46 106.08 153.46 88.23 196.27 88.23 196.65 70.58 153.46 51.39 59.26 52.8"/><polygon class="cls-1" points="59.26 159.75 54.45 136.2 59.26 134.33 59.26 118.36 153.46 118.36 153.46 129.18 197.02 130.26 197.05 146.37 153.46 160.84 59.26 159.75"/><polygon class="cls-3" points="153.46 106.08 153.46 118.46 40.3 116.68 40.3 104.49 153.46 106.08"/><rect class="cls-5" x="4.33" y="10.16" width="41.17" height="198.25"/><polygon class="cls-2" points="197.7 87.26 198.52 130.46 151.96 129.18 151.96 88.23 197.7 87.26"/><polygon class="cls-2" points="64.35 52.72 64.35 104.49 59.26 104.76 59.26 85.51 54.45 83.11 59.26 52.8 64.35 52.72"/><polygon class="cls-2" points="77.1 104.49 77.1 52.72 65.75 51.39 65.75 104.49 77.1 104.49"/><polygon class="cls-2" points="89.67 104.49 89.67 52.72 78.32 51.39 78.32 104.49 89.67 104.49"/><polygon class="cls-2" points="102.27 104.49 102.27 52.72 90.92 51.39 90.92 104.49 102.27 104.49"/><polygon class="cls-2" points="114.68 105.28 114.68 53.51 103.33 52.18 103.33 105.28 114.68 105.28"/><polygon class="cls-2" points="126.84 104.49 126.84 52.72 115.49 51.39 115.49 104.49 126.84 104.49"/><polygon class="cls-2" points="138.99 104.49 138.99 52.72 127.65 51.39 127.65 104.49 138.99 104.49"/><polygon class="cls-2" points="151.15 104.49 151.15 52.72 139.8 51.39 139.8 104.49 151.15 104.49"/><polygon class="cls-2" points="163.31 105.28 163.31 55.41 151.96 52.18 151.96 105.28 163.31 105.28"/><polygon class="cls-2" points="175.47 110.52 175.47 60.64 164.12 57.41 164.12 110.52 175.47 110.52"/><polygon class="cls-2" points="187.67 115.06 187.67 65.18 176.32 61.95 176.32 115.06 187.67 115.06"/><polygon class="cls-2" points="197.82 119.84 197.82 69.97 188.65 66.74 188.65 119.84 197.82 119.84"/><polygon class="cls-2" points="65.05 159.91 65.05 119.38 59.96 119.17 59.96 134.24 55.16 136.12 59.96 159.85 65.05 159.91"/><polygon class="cls-2" points="77.81 119.38 77.81 159.91 66.46 160.96 66.46 119.38 77.81 119.38"/><polygon class="cls-2" points="90.37 119.38 90.37 159.91 79.03 160.96 79.03 119.38 90.37 119.38"/><polygon class="cls-2" points="102.97 119.38 102.97 159.91 91.63 160.96 91.63 119.38 102.97 119.38"/><polygon class="cls-2" points="115.39 118.76 115.39 159.29 104.04 160.34 104.04 118.76 115.39 118.76"/><polygon class="cls-2" points="127.55 119.38 127.55 159.91 116.2 160.96 116.2 119.38 127.55 119.38"/><polygon class="cls-2" points="139.7 119.38 139.7 159.91 128.35 160.96 128.35 119.38 139.7 119.38"/><polygon class="cls-2" points="151.86 119.38 151.86 159.91 140.51 160.96 140.51 119.38 151.86 119.38"/><polygon class="cls-2" points="164.01 118.76 164.01 157.81 152.67 160.34 152.67 118.76 164.01 118.76"/><polygon class="cls-2" points="176.17 114.67 176.17 153.71 164.83 156.24 164.83 114.67 176.17 114.67"/><polygon class="cls-2" points="188.37 111.11 188.37 150.16 177.02 152.69 177.02 111.11 188.37 111.11"/><polygon class="cls-2" points="198.52 107.36 198.52 146.41 189.36 148.94 189.36 107.36 198.52 107.36"/><polygon class="cls-3" points="8.27 14.14 40.3 14.14 42.05 204.68 8.27 204.68 38.98 202.55 37.72 17.18 8.27 14.14"/></svg>